<!-- icon666.com - MILLIONS vector ICONS FREE --><svg id="圖層_1" viewBox="0 0 512 512" xmlns="http://www.w3.org/2000/svg"><path id="_x30_1" d="m401.704 289.783c-.255-4.955-4.352-8.828-9.303-8.828h-146.506l.28-37.708h119.626c4.698 0 8.667-3.507 9.25-8.165 0 0 17.077-133.473 17.077-134.773 0-1.086-3.441-57.813-3.441-57.813-.253-4.946-4.353-8.82-9.303-8.82h-246.825c-4.951 0-9.047 3.874-9.301 8.83l-16.658 317.447c-.006.445-.063 1.254.145 2.191l20.17 108.563c.82 4.418 4.662 7.619 9.16 7.619h239.851c4.495 0 8.337-3.201 9.158-7.619l20.171-108.563c.117-1.125.187-1.469.146-2.191zm-275.973 61.334 15.677-298.801h229.144l2.06 38.67h-134.693c-5.114 0-9.285 4.131-9.322 9.246l-1.418 189.973c-.019 2.482.947 4.875 2.712 6.631 1.748 1.77 4.132 2.754 6.609 2.754h147.054l2.712 51.527z" fill="#000000" style="fill: rgb(45, 4, 251);"></path></svg>